<svg width="12" height="12" viewBox="0 0 12 12" fill="none" xmlns="http://www.w3.org/2000/svg">
<path d="M9.04453 5.79894C8.95998 5.99682 8.75432 6.10992 8.54652 6.07282L8.02363 5.97946C7.30815 5.85167 6.76612 5.24703 6.70285 4.50615L6.62909 3.64304C6.61784 3.51212 6.43699 3.49646 6.40446 3.62358L6.1188 4.74258C5.96016 5.36403 5.46201 5.83361 4.84407 5.94398L3.77631 6.13464C3.65006 6.15728 3.65006 6.34272 3.77631 6.36536L4.64491 6.52054C5.36039 6.64833 5.90242 7.25297 5.96569 7.99385L6.03945 8.85696C6.0507 8.98788 6.23155 9.00354 6.26409 8.87642L6.54974 7.75742C6.70838 7.13597 7.20653 6.66639 7.82447 6.55602L8.49152 6.43679C8.71796 6.39631 8.93859 6.53407 9.00716 6.75873L9.90354 9.69571C9.9496 9.84663 9.8395 10 9.68508 10H2.45777C2.19935 10 1.99216 9.7811 2.00023 9.51661L2.2005 2.95411C2.20822 2.70105 2.41079 2.5 2.65805 2.5H10.1042C10.2693 2.5 10.3801 2.67348 10.3139 2.82833L9.04453 5.79894Z" fill="#00C4BD"/>
</svg>
