<svg width="24" height="24" viewBox="0 0 24 24" fill="none" xmlns="http://www.w3.org/2000/svg">
<path d="M10.5242 2.58289C11.3546 1.8057 12.6454 1.8057 13.4758 2.58289L14.6304 3.66355C15.0126 4.02124 15.5116 4.22796 16.0348 4.24526L17.6154 4.29756C18.7521 4.33517 19.6648 5.24792 19.7024 6.38464L19.7547 7.96522C19.772 8.48837 19.9788 8.98743 20.3364 9.36959L21.4171 10.5242C22.1943 11.3546 22.1943 12.6454 21.4171 13.4758L20.3364 14.6304C19.9788 15.0126 19.772 15.5116 19.7547 16.0348L19.7024 17.6154C19.6648 18.7521 18.7521 19.6648 17.6154 19.7024L16.0348 19.7547C15.5116 19.772 15.0126 19.9788 14.6304 20.3364L13.4758 21.4171C12.6454 22.1943 11.3546 22.1943 10.5242 21.4171L9.36959 20.3364C8.98743 19.9788 8.48837 19.772 7.96522 19.7547L6.38464 19.7024C5.24792 19.6648 4.33517 18.7521 4.29756 17.6154L4.24526 16.0348C4.22796 15.5116 4.02124 15.0126 3.66355 14.6304L2.58289 13.4758C1.8057 12.6454 1.8057 11.3546 2.58289 10.5242L3.66355 9.36959C4.02124 8.98743 4.22796 8.48837 4.24526 7.96522L4.29756 6.38464C4.33517 5.24792 5.24792 4.33517 6.38464 4.29756L7.96522 4.24526C8.48837 4.22796 8.98743 4.02124 9.36959 3.66355L10.5242 2.58289Z" fill="url(#paint0_linear_68_1090)"/>
<path d="M13.4232 13.4235C14.0127 12.834 14.9683 12.834 15.5579 13.4235C16.1474 14.013 16.1474 14.9686 15.5579 15.558C14.9683 16.1473 14.0126 16.1474 13.4232 15.558C12.8337 14.9686 12.8339 14.013 13.4232 13.4235ZM13.7789 8.79776C14.1719 8.40481 14.809 8.40492 15.2021 8.79776C15.5951 9.19076 15.5951 9.82778 15.2021 10.2208L10.2211 15.2023C9.82817 15.5952 9.19101 15.595 8.79795 15.2023C8.40491 14.8093 8.40491 14.1723 8.79795 13.7793L13.7789 8.79776ZM8.44216 8.44201C9.03173 7.85274 9.9874 7.85259 10.5769 8.44201C11.1662 9.03143 11.1662 9.98705 10.5769 10.5765C9.98737 11.166 9.03172 11.1659 8.44216 10.5765C7.85261 9.98703 7.85261 9.0315 8.44216 8.44201Z" fill="white"/>
<defs>
<linearGradient id="paint0_linear_68_1090" x1="6.91745" y1="4.37666" x2="18.351" y2="19.6214" gradientUnits="userSpaceOnUse">
<stop stop-color="#998AFF"/>
<stop offset="1" stop-color="#816EFE"/>
</linearGradient>
</defs>
</svg>
