<svg width="11" height="10" viewBox="0 0 11 10" fill="none" xmlns="http://www.w3.org/2000/svg">
<path d="M4.87624 0.430528C5.07257 -0.14351 5.92743 -0.143509 6.12377 0.43053L6.97251 2.91207C7.06032 3.16879 7.31214 3.3426 7.59628 3.3426H10.3429C10.9782 3.3426 11.2424 4.11496 10.7284 4.46974L8.50634 6.00342C8.27647 6.16208 8.18028 6.44331 8.26808 6.70003L9.11683 9.18157C9.31316 9.75561 8.62156 10.233 8.10755 9.87818L5.88551 8.3445C5.65564 8.18584 5.34436 8.18584 5.11449 8.3445L2.89245 9.87818C2.37843 10.233 1.68684 9.75561 1.88317 9.18157L2.73192 6.70003C2.81972 6.44331 2.72353 6.16208 2.49366 6.00342L0.271614 4.46974C-0.242397 4.11496 0.0217713 3.3426 0.657124 3.3426H3.40372C3.68786 3.3426 3.93968 3.16879 4.02749 2.91207L4.87624 0.430528Z" fill="#FFC300"/>
</svg>
