<svg width="24" height="24" viewBox="0 0 24 24" fill="none" xmlns="http://www.w3.org/2000/svg">
<path d="M19.6 7.7C19.8518 7.88885 20 8.18524 20 8.5V19.5C20 19.7761 19.7761 20 19.5 20H15.4412C15.165 20 14.9412 19.7761 14.9412 19.5V15.5C14.9412 14.1193 13.8219 13 12.4412 13H12.0294C10.6487 13 9.52941 14.1193 9.52941 15.5V19.5C9.52941 19.7761 9.30555 20 9.02941 20H4.5C4.22386 20 4 19.7761 4 19.5V8.5C4 8.18524 4.14819 7.88885 4.4 7.7L11.4 2.45C11.7556 2.18333 12.2444 2.18333 12.6 2.45L19.6 7.7Z" fill="#181A1C" stroke="#181A1C" stroke-width="2"/>
</svg>
