<svg width="12" height="12" viewBox="0 0 12 12" fill="none" xmlns="http://www.w3.org/2000/svg">
<path d="M6.70025 1C9.46168 1 11.7003 3.23858 11.7003 6C11.7003 8.76142 9.46168 11 6.70025 11C4.10763 11 1.97653 9.02661 1.72564 6.5H1.29986C1.05293 6.49965 0.912363 6.21718 1.0606 6.01953L1.96002 4.82031C2.08002 4.66031 2.32048 4.66031 2.44048 4.82031L3.3399 6.01953C3.48816 6.21722 3.34765 6.49975 3.10064 6.5H2.73248C2.97859 8.47306 4.66052 9.99997 6.70025 10C8.9094 10 10.7003 8.20914 10.7003 6C10.7003 3.79086 8.9094 2 6.70025 2C6.07364 2.00001 5.48187 2.14358 4.95514 2.39941C4.70683 2.52001 4.40691 2.41717 4.28619 2.16895C4.16557 1.92062 4.26939 1.62072 4.51764 1.5C5.17766 1.17936 5.91886 1.00001 6.70025 1ZM6.20025 3.5C6.4764 3.5 6.70025 3.72386 6.70025 4V6H8.70026C8.9764 6 9.20026 6.22386 9.20026 6.5C9.20026 6.77614 8.9764 7 8.70026 7H6.20025C5.92414 6.99996 5.70025 6.77612 5.70025 6.5V4C5.70025 3.72388 5.92414 3.50004 6.20025 3.5Z" fill="#007EFF"/>
</svg>
